<svg width="20" height="20" viewBox="0 0 20 20" fill="none" xmlns="http://www.w3.org/2000/svg">
    <path d="M5.42676 16.9082C6.25589 16.9085 6.93552 17.6019 6.93555 18.459C6.93555 19.3059 6.25591 19.9998 5.42676 20C4.58741 20 3.90723 19.306 3.90723 18.459C3.90725 17.6018 4.58743 16.9082 5.42676 16.9082ZM16.668 16.9082C17.4971 16.9084 18.1767 17.6019 18.1768 18.459C18.1768 19.3059 17.4971 19.9998 16.668 20C15.8286 20 15.1484 19.306 15.1484 18.459C15.1485 17.6018 15.8286 16.9082 16.668 16.9082ZM0.0107422 0.640625C0.0806784 0.223292 0.470261 -0.0533645 0.879883 0.00878906L3.26367 0.375C3.60318 0.437416 3.85285 0.722513 3.88281 1.06934L4.07227 3.35547C4.10242 3.68267 4.36224 3.9275 4.68164 3.92773H18.1768C18.7862 3.92778 19.1863 4.14194 19.5859 4.61133C19.9854 5.0807 20.0547 5.75412 19.9648 6.36523L19.0156 13.0596C18.8358 14.3463 17.7571 15.2947 16.4883 15.2949H5.58594C4.25726 15.2947 3.15885 14.255 3.04883 12.9082L2.12891 1.7832L0.620117 1.51855C0.220517 1.4471 -0.0590841 1.04875 0.0107422 0.640625ZM12.1211 7.70215C11.7015 7.70226 11.3721 8.03923 11.3721 8.46777C11.3721 8.8861 11.7015 9.23329 12.1211 9.2334H14.8887C15.3083 9.2334 15.6387 8.88617 15.6387 8.46777C15.6387 8.03916 15.3083 7.70215 14.8887 7.70215H12.1211Z" fill="#AAFF01"/>
</svg>
